<?xml version="1.0" encoding="utf-8" ?>
<!DOCTYPE svg PUBLIC "-//W3C//DTD SVG 1.1//EN" "http://www.w3.org/Graphics/SVG/1.1/DTD/svg11.dtd">
<svg height="782" version="1.1" width="1062" xmlns="http://www.w3.org/2000/svg">
<text font-family="Dialog" font-size="12" x="24" y="203">
Usuário</text>
<ellipse cx="46" cy="151" fill="#000000" rx="8.0" ry="7.5" stroke="#000000" stroke-width="1"/>
<ellipse cx="46" cy="151" fill="#ffffff" rx="7.0" ry="6.5" stroke="#ffffff" stroke-width="1"/>
<line fill="#000000" stroke="#000000" stroke-width="1" x1="46" x2="46" y1="159" y2="174"/>
<line fill="#000000" stroke="#000000" stroke-width="1" x1="36" x2="56" y1="164" y2="164"/>
<line fill="#000000" stroke="#000000" stroke-width="1" x1="46" x2="41" y1="174" y2="189"/>
<line fill="#000000" stroke="#000000" stroke-width="1" x1="46" x2="51" y1="174" y2="189"/>
<ellipse cx="623" cy="288" fill="#000000" rx="79.0" ry="26.0" stroke="#000000" stroke-width="1"/>
<ellipse cx="623" cy="288" fill="#ffffff" rx="78.0" ry="25.0" stroke="#ffffff" stroke-width="1"/>
<text font-family="Dialog" font-size="12" x="558" y="289">
Ver Informação do Livro</text>
<ellipse cx="143" cy="59" fill="#000000" rx="55.0" ry="21.0" stroke="#000000" stroke-width="1"/>
<ellipse cx="143" cy="59" fill="#ffffff" rx="54.0" ry="20.0" stroke="#ffffff" stroke-width="1"/>
<text font-family="Dialog" font-size="12" x="127" y="60">
Login</text>
<ellipse cx="865" cy="41" fill="#000000" rx="81.0" ry="27.0" stroke="#000000" stroke-width="1"/>
<ellipse cx="865" cy="41" fill="#ffffff" rx="80.0" ry="26.0" stroke="#ffffff" stroke-width="1"/>
<text font-family="Dialog" font-size="12" x="798" y="42">
Ver Sugestões de Livros</text>
<ellipse cx="612" cy="145" fill="#000000" rx="84.0" ry="27.0" stroke="#000000" stroke-width="1"/>
<ellipse cx="612" cy="145" fill="#ffffff" rx="83.0" ry="26.0" stroke="#ffffff" stroke-width="1"/>
<text font-family="Dialog" font-size="12" x="542" y="146">
Peguar Livro emprestado</text>
<ellipse cx="327" cy="403" fill="#000000" rx="55.0" ry="21.0" stroke="#000000" stroke-width="1"/>
<ellipse cx="327" cy="403" fill="#ffffff" rx="54.0" ry="20.0" stroke="#ffffff" stroke-width="1"/>
<text font-family="Dialog" font-size="12" x="289" y="404">
Devolver Livro</text>
<ellipse cx="368" cy="304" fill="#000000" rx="80.0" ry="26.0" stroke="#000000" stroke-width="1"/>
<ellipse cx="368" cy="304" fill="#ffffff" rx="79.0" ry="25.0" stroke="#ffffff" stroke-width="1"/>
<text font-family="Dialog" font-size="12" x="302" y="305">
Ver Livro em sua Posse</text>
<line fill="#000000" stroke="#000000" stroke-width="1" x1="545" x2="540" y1="292" y2="292"/>
<line fill="#000000" stroke="#000000" stroke-width="1" x1="535" x2="530" y1="292" y2="292"/>
<line fill="#000000" stroke="#000000" stroke-width="1" x1="525" x2="520" y1="293" y2="293"/>
<line fill="#000000" stroke="#000000" stroke-width="1" x1="515" x2="510" y1="293" y2="294"/>
<line fill="#000000" stroke="#000000" stroke-width="1" x1="505" x2="500" y1="294" y2="294"/>
<line fill="#000000" stroke="#000000" stroke-width="1" x1="495" x2="490" y1="295" y2="295"/>
<line fill="#000000" stroke="#000000" stroke-width="1" x1="485" x2="480" y1="295" y2="295"/>
<line fill="#000000" stroke="#000000" stroke-width="1" x1="475" x2="470" y1="296" y2="296"/>
<line fill="#000000" stroke="#000000" stroke-width="1" x1="465" x2="460" y1="296" y2="297"/>
<line fill="#000000" stroke="#000000" stroke-width="1" x1="455" x2="450" y1="297" y2="297"/>
<line fill="#000000" stroke="#000000" stroke-width="1" x1="457" x2="446" y1="290" y2="298"/>
<line fill="#000000" stroke="#000000" stroke-width="1" x1="458" x2="446" y1="304" y2="298"/>
<text font-family="Dialog" font-size="12" x="462" y="288">
&lt;&lt;include&gt;&gt;</text>
<ellipse cx="490" cy="220" fill="#000000" rx="58.0" ry="22.0" stroke="#000000" stroke-width="1"/>
<ellipse cx="490" cy="220" fill="#ffffff" rx="57.0" ry="21.0" stroke="#ffffff" stroke-width="1"/>
<text font-family="Dialog" font-size="12" x="447" y="221">
Pesquisar Livro</text>
<line fill="#000000" stroke="#000000" stroke-width="1" x1="647" x2="650" y1="263" y2="260"/>
<line fill="#000000" stroke="#000000" stroke-width="1" x1="653" x2="657" y1="256" y2="253"/>
<line fill="#000000" stroke="#000000" stroke-width="1" x1="660" x2="664" y1="249" y2="246"/>
<line fill="#000000" stroke="#000000" stroke-width="1" x1="667" x2="671" y1="242" y2="238"/>
<line fill="#000000" stroke="#000000" stroke-width="1" x1="674" x2="678" y1="235" y2="231"/>
<line fill="#000000" stroke="#000000" stroke-width="1" x1="681" x2="685" y1="228" y2="224"/>
<line fill="#000000" stroke="#000000" stroke-width="1" x1="688" x2="692" y1="221" y2="217"/>
<line fill="#000000" stroke="#000000" stroke-width="1" x1="695" x2="699" y1="213" y2="210"/>
<line fill="#000000" stroke="#000000" stroke-width="1" x1="702" x2="706" y1="206" y2="203"/>
<line fill="#000000" stroke="#000000" stroke-width="1" x1="709" x2="713" y1="199" y2="195"/>
<line fill="#000000" stroke="#000000" stroke-width="1" x1="716" x2="720" y1="192" y2="188"/>
<line fill="#000000" stroke="#000000" stroke-width="1" x1="723" x2="727" y1="185" y2="181"/>
<line fill="#000000" stroke="#000000" stroke-width="1" x1="730" x2="734" y1="178" y2="174"/>
<line fill="#000000" stroke="#000000" stroke-width="1" x1="737" x2="741" y1="170" y2="167"/>
<line fill="#000000" stroke="#000000" stroke-width="1" x1="744" x2="748" y1="163" y2="160"/>
<line fill="#000000" stroke="#000000" stroke-width="1" x1="751" x2="755" y1="156" y2="152"/>
<line fill="#000000" stroke="#000000" stroke-width="1" x1="758" x2="762" y1="149" y2="145"/>
<line fill="#000000" stroke="#000000" stroke-width="1" x1="765" x2="769" y1="142" y2="138"/>
<line fill="#000000" stroke="#000000" stroke-width="1" x1="772" x2="776" y1="135" y2="131"/>
<line fill="#000000" stroke="#000000" stroke-width="1" x1="779" x2="783" y1="127" y2="124"/>
<line fill="#000000" stroke="#000000" stroke-width="1" x1="786" x2="790" y1="120" y2="117"/>
<line fill="#000000" stroke="#000000" stroke-width="1" x1="793" x2="797" y1="113" y2="109"/>
<line fill="#000000" stroke="#000000" stroke-width="1" x1="800" x2="804" y1="106" y2="102"/>
<line fill="#000000" stroke="#000000" stroke-width="1" x1="807" x2="811" y1="99" y2="95"/>
<line fill="#000000" stroke="#000000" stroke-width="1" x1="814" x2="818" y1="92" y2="88"/>
<line fill="#000000" stroke="#000000" stroke-width="1" x1="821" x2="825" y1="84" y2="81"/>
<line fill="#000000" stroke="#000000" stroke-width="1" x1="828" x2="832" y1="77" y2="74"/>
<line fill="#000000" stroke="#000000" stroke-width="1" x1="835" x2="839" y1="70" y2="66"/>
<line fill="#000000" stroke="#000000" stroke-width="1" x1="835" x2="839" y1="79" y2="66"/>
<line fill="#000000" stroke="#000000" stroke-width="1" x1="825" x2="839" y1="69" y2="66"/>
<text font-family="Dialog" font-size="12" x="685" y="148">
&lt;&lt;include&gt;&gt;</text>
<line fill="#000000" stroke="#000000" stroke-width="1" x1="580" x2="576" y1="266" y2="264"/>
<line fill="#000000" stroke="#000000" stroke-width="1" x1="572" x2="567" y1="262" y2="260"/>
<line fill="#000000" stroke="#000000" stroke-width="1" x1="563" x2="558" y1="257" y2="255"/>
<line fill="#000000" stroke="#000000" stroke-width="1" x1="554" x2="549" y1="253" y2="250"/>
<line fill="#000000" stroke="#000000" stroke-width="1" x1="545" x2="540" y1="248" y2="246"/>
<line fill="#000000" stroke="#000000" stroke-width="1" x1="536" x2="532" y1="243" y2="241"/>
<line fill="#000000" stroke="#000000" stroke-width="1" x1="527" x2="524" y1="239" y2="237"/>
<line fill="#000000" stroke="#000000" stroke-width="1" x1="537" x2="524" y1="236" y2="237"/>
<line fill="#000000" stroke="#000000" stroke-width="1" x1="531" x2="524" y1="248" y2="237"/>
<text font-family="Dialog" font-size="12" x="530" y="234">
&lt;&lt;include&gt;&gt;</text>
<line fill="#000000" stroke="#000000" stroke-width="1" x1="572" x2="568" y1="168" y2="170"/>
<line fill="#000000" stroke="#000000" stroke-width="1" x1="564" x2="560" y1="173" y2="175"/>
<line fill="#000000" stroke="#000000" stroke-width="1" x1="555" x2="551" y1="178" y2="181"/>
<line fill="#000000" stroke="#000000" stroke-width="1" x1="547" x2="543" y1="183" y2="186"/>
<line fill="#000000" stroke="#000000" stroke-width="1" x1="538" x2="534" y1="189" y2="191"/>
<line fill="#000000" stroke="#000000" stroke-width="1" x1="530" x2="525" y1="194" y2="197"/>
<line fill="#000000" stroke="#000000" stroke-width="1" x1="521" x2="519" y1="199" y2="201"/>
<line fill="#000000" stroke="#000000" stroke-width="1" x1="525" x2="519" y1="188" y2="201"/>
<line fill="#000000" stroke="#000000" stroke-width="1" x1="532" x2="519" y1="200" y2="201"/>
<text font-family="Dialog" font-size="12" x="497" y="166">
&lt;&lt;include&gt;&gt;</text>
<line fill="#000000" stroke="#000000" stroke-width="1" x1="663" x2="667" y1="123" y2="122"/>
<line fill="#000000" stroke="#000000" stroke-width="1" x1="672" x2="676" y1="120" y2="118"/>
<line fill="#000000" stroke="#000000" stroke-width="1" x1="681" x2="686" y1="116" y2="114"/>
<line fill="#000000" stroke="#000000" stroke-width="1" x1="690" x2="695" y1="112" y2="110"/>
<line fill="#000000" stroke="#000000" stroke-width="1" x1="700" x2="704" y1="108" y2="106"/>
<line fill="#000000" stroke="#000000" stroke-width="1" x1="709" x2="713" y1="104" y2="102"/>
<line fill="#000000" stroke="#000000" stroke-width="1" x1="718" x2="723" y1="101" y2="99"/>
<line fill="#000000" stroke="#000000" stroke-width="1" x1="727" x2="732" y1="97" y2="95"/>
<line fill="#000000" stroke="#000000" stroke-width="1" x1="737" x2="741" y1="93" y2="91"/>
<line fill="#000000" stroke="#000000" stroke-width="1" x1="746" x2="750" y1="89" y2="87"/>
<line fill="#000000" stroke="#000000" stroke-width="1" x1="755" x2="760" y1="85" y2="83"/>
<line fill="#000000" stroke="#000000" stroke-width="1" x1="764" x2="769" y1="81" y2="79"/>
<line fill="#000000" stroke="#000000" stroke-width="1" x1="774" x2="778" y1="78" y2="76"/>
<line fill="#000000" stroke="#000000" stroke-width="1" x1="783" x2="788" y1="74" y2="72"/>
<line fill="#000000" stroke="#000000" stroke-width="1" x1="792" x2="797" y1="70" y2="68"/>
<line fill="#000000" stroke="#000000" stroke-width="1" x1="801" x2="806" y1="66" y2="64"/>
<line fill="#000000" stroke="#000000" stroke-width="1" x1="811" x2="813" y1="62" y2="61"/>
<line fill="#000000" stroke="#000000" stroke-width="1" x1="804" x2="813" y1="72" y2="61"/>
<line fill="#000000" stroke="#000000" stroke-width="1" x1="799" x2="813" y1="59" y2="61"/>
<text font-family="Dialog" font-size="12" x="695" y="75">
&lt;&lt;include&gt;&gt;</text>
<text font-family="Dialog" font-size="12" x="36" y="651">
Bibliotecário</text>
<ellipse cx="70" cy="599" fill="#000000" rx="8.0" ry="7.5" stroke="#000000" stroke-width="1"/>
<ellipse cx="70" cy="599" fill="#ffffff" rx="7.0" ry="6.5" stroke="#ffffff" stroke-width="1"/>
<line fill="#000000" stroke="#000000" stroke-width="1" x1="70" x2="70" y1="607" y2="622"/>
<line fill="#000000" stroke="#000000" stroke-width="1" x1="60" x2="80" y1="612" y2="612"/>
<line fill="#000000" stroke="#000000" stroke-width="1" x1="70" x2="65" y1="622" y2="637"/>
<line fill="#000000" stroke="#000000" stroke-width="1" x1="70" x2="75" y1="622" y2="637"/>
<polyline fill="none" points="67,591 51,213" stroke="#333399" stroke-width="1"/>
<polygon fill="#ffffff" points="51,213 58,224 44,225" stroke="#ffffff" stroke-width="1"/>
<polygon fill="none" points="51,213 58,224 44,225" stroke="#333399" stroke-width="1"/>
<ellipse cx="431" cy="563" fill="#000000" rx="55.0" ry="21.0" stroke="#000000" stroke-width="1"/>
<ellipse cx="431" cy="563" fill="#ffffff" rx="54.0" ry="20.0" stroke="#ffffff" stroke-width="1"/>
<text font-family="Dialog" font-size="12" x="406" y="564">
Relatório</text>
<ellipse cx="215" cy="539" fill="#000000" rx="55.0" ry="21.0" stroke="#000000" stroke-width="1"/>
<ellipse cx="215" cy="539" fill="#ffffff" rx="54.0" ry="20.0" stroke="#ffffff" stroke-width="1"/>
<text font-family="Dialog" font-size="12" x="180" y="540">
Uso do Livro</text>
<line fill="#000000" stroke="#000000" stroke-width="1" x1="268" x2="273" y1="544" y2="544"/>
<line fill="#000000" stroke="#000000" stroke-width="1" x1="278" x2="283" y1="545" y2="545"/>
<line fill="#000000" stroke="#000000" stroke-width="1" x1="288" x2="293" y1="546" y2="546"/>
<line fill="#000000" stroke="#000000" stroke-width="1" x1="298" x2="303" y1="547" y2="547"/>
<line fill="#000000" stroke="#000000" stroke-width="1" x1="308" x2="313" y1="548" y2="548"/>
<line fill="#000000" stroke="#000000" stroke-width="1" x1="318" x2="323" y1="549" y2="550"/>
<line fill="#000000" stroke="#000000" stroke-width="1" x1="328" x2="333" y1="550" y2="551"/>
<line fill="#000000" stroke="#000000" stroke-width="1" x1="338" x2="343" y1="551" y2="552"/>
<line fill="#000000" stroke="#000000" stroke-width="1" x1="348" x2="353" y1="552" y2="553"/>
<line fill="#000000" stroke="#000000" stroke-width="1" x1="358" x2="363" y1="553" y2="554"/>
<line fill="#000000" stroke="#000000" stroke-width="1" x1="368" x2="373" y1="554" y2="555"/>
<line fill="#000000" stroke="#000000" stroke-width="1" x1="365" x2="378" y1="561" y2="556"/>
<line fill="#000000" stroke="#000000" stroke-width="1" x1="366" x2="378" y1="547" y2="556"/>
<text font-family="Dialog" font-size="12" x="293" y="523">
&lt;&lt;extend&gt;&gt;</text>
<ellipse cx="352" cy="457" fill="#000000" rx="80.0" ry="27.0" stroke="#000000" stroke-width="1"/>
<ellipse cx="352" cy="457" fill="#ffffff" rx="79.0" ry="26.0" stroke="#ffffff" stroke-width="1"/>
<text font-family="Dialog" font-size="12" x="285" y="458">
Informações do Usuário</text>
<line fill="#000000" stroke="#000000" stroke-width="1" x1="371" x2="374" y1="483" y2="487"/>
<line fill="#000000" stroke="#000000" stroke-width="1" x1="377" x2="380" y1="491" y2="495"/>
<line fill="#000000" stroke="#000000" stroke-width="1" x1="383" x2="386" y1="499" y2="503"/>
<line fill="#000000" stroke="#000000" stroke-width="1" x1="389" x2="392" y1="507" y2="511"/>
<line fill="#000000" stroke="#000000" stroke-width="1" x1="395" x2="398" y1="515" y2="519"/>
<line fill="#000000" stroke="#000000" stroke-width="1" x1="401" x2="404" y1="523" y2="527"/>
<line fill="#000000" stroke="#000000" stroke-width="1" x1="407" x2="410" y1="531" y2="535"/>
<line fill="#000000" stroke="#000000" stroke-width="1" x1="413" x2="415" y1="539" y2="542"/>
<line fill="#000000" stroke="#000000" stroke-width="1" x1="402" x2="415" y1="536" y2="542"/>
<line fill="#000000" stroke="#000000" stroke-width="1" x1="413" x2="415" y1="528" y2="542"/>
<text font-family="Dialog" font-size="12" x="392" y="485">
&lt;&lt;extend&gt;&gt;</text>
<ellipse cx="584" cy="533" fill="#000000" rx="64.0" ry="23.0" stroke="#000000" stroke-width="1"/>
<ellipse cx="584" cy="533" fill="#ffffff" rx="63.0" ry="22.0" stroke="#ffffff" stroke-width="1"/>
<text font-family="Dialog" font-size="12" x="535" y="534">
Uso da Bibliotéca</text>
<line fill="#000000" stroke="#000000" stroke-width="1" x1="527" x2="522" y1="543" y2="543"/>
<line fill="#000000" stroke="#000000" stroke-width="1" x1="517" x2="512" y1="544" y2="545"/>
<line fill="#000000" stroke="#000000" stroke-width="1" x1="507" x2="502" y1="546" y2="547"/>
<line fill="#000000" stroke="#000000" stroke-width="1" x1="497" x2="492" y1="548" y2="549"/>
<line fill="#000000" stroke="#000000" stroke-width="1" x1="487" x2="482" y1="550" y2="551"/>
<line fill="#000000" stroke="#000000" stroke-width="1" x1="489" x2="479" y1="542" y2="552"/>
<line fill="#000000" stroke="#000000" stroke-width="1" x1="492" x2="479" y1="556" y2="552"/>
<text font-family="Dialog" font-size="12" x="467" y="520">
&lt;&lt;extend&gt;&gt;</text>
<ellipse cx="655" cy="643" fill="#000000" rx="55.0" ry="21.0" stroke="#000000" stroke-width="1"/>
<ellipse cx="655" cy="643" fill="#ffffff" rx="54.0" ry="20.0" stroke="#ffffff" stroke-width="1"/>
<text font-family="Dialog" font-size="12" x="627" y="644">
Cadastrar</text>
<ellipse cx="928" cy="531" fill="#000000" rx="56.0" ry="21.0" stroke="#000000" stroke-width="1"/>
<ellipse cx="928" cy="531" fill="#ffffff" rx="55.0" ry="20.0" stroke="#ffffff" stroke-width="1"/>
<text font-family="Dialog" font-size="12" x="888" y="532">
Adicionar Livro</text>
<ellipse cx="984" cy="637" fill="#000000" rx="64.0" ry="23.0" stroke="#000000" stroke-width="1"/>
<ellipse cx="984" cy="637" fill="#ffffff" rx="63.0" ry="22.0" stroke="#ffffff" stroke-width="1"/>
<text font-family="Dialog" font-size="12" x="935" y="638">
Adicionar Usuário</text>
<ellipse cx="896" cy="701" fill="#000000" rx="64.0" ry="23.0" stroke="#000000" stroke-width="1"/>
<ellipse cx="896" cy="701" fill="#ffffff" rx="63.0" ry="22.0" stroke="#ffffff" stroke-width="1"/>
<text font-family="Dialog" font-size="12" x="847" y="702">
Remover Usuário</text>
<ellipse cx="615" cy="739" fill="#000000" rx="55.0" ry="21.0" stroke="#000000" stroke-width="1"/>
<ellipse cx="615" cy="739" fill="#ffffff" rx="54.0" ry="20.0" stroke="#ffffff" stroke-width="1"/>
<text font-family="Dialog" font-size="12" x="575" y="740">
Remover Livro</text>
<ellipse cx="463" cy="739" fill="#000000" rx="55.0" ry="21.0" stroke="#000000" stroke-width="1"/>
<ellipse cx="463" cy="739" fill="#ffffff" rx="54.0" ry="20.0" stroke="#ffffff" stroke-width="1"/>
<text font-family="Dialog" font-size="12" x="432" y="740">
Editar Livro</text>
<ellipse cx="751" cy="747" fill="#000000" rx="55.0" ry="21.0" stroke="#000000" stroke-width="1"/>
<ellipse cx="751" cy="747" fill="#ffffff" rx="54.0" ry="20.0" stroke="#ffffff" stroke-width="1"/>
<text font-family="Dialog" font-size="12" x="711" y="748">
Editar Usuário</text>
<line fill="#000000" stroke="#000000" stroke-width="1" x1="890" x2="886" y1="546" y2="547"/>
<line fill="#000000" stroke="#000000" stroke-width="1" x1="881" x2="877" y1="549" y2="551"/>
<line fill="#000000" stroke="#000000" stroke-width="1" x1="872" x2="867" y1="553" y2="555"/>
<line fill="#000000" stroke="#000000" stroke-width="1" x1="863" x2="858" y1="557" y2="559"/>
<line fill="#000000" stroke="#000000" stroke-width="1" x1="853" x2="849" y1="561" y2="563"/>
<line fill="#000000" stroke="#000000" stroke-width="1" x1="844" x2="839" y1="565" y2="566"/>
<line fill="#000000" stroke="#000000" stroke-width="1" x1="835" x2="830" y1="568" y2="570"/>
<line fill="#000000" stroke="#000000" stroke-width="1" x1="825" x2="821" y1="572" y2="574"/>
<line fill="#000000" stroke="#000000" stroke-width="1" x1="816" x2="811" y1="576" y2="578"/>
<line fill="#000000" stroke="#000000" stroke-width="1" x1="807" x2="802" y1="580" y2="582"/>
<line fill="#000000" stroke="#000000" stroke-width="1" x1="798" x2="793" y1="584" y2="585"/>
<line fill="#000000" stroke="#000000" stroke-width="1" x1="788" x2="784" y1="587" y2="589"/>
<line fill="#000000" stroke="#000000" stroke-width="1" x1="779" x2="774" y1="591" y2="593"/>
<line fill="#000000" stroke="#000000" stroke-width="1" x1="770" x2="765" y1="595" y2="597"/>
<line fill="#000000" stroke="#000000" stroke-width="1" x1="760" x2="756" y1="599" y2="601"/>
<line fill="#000000" stroke="#000000" stroke-width="1" x1="751" x2="746" y1="603" y2="604"/>
<line fill="#000000" stroke="#000000" stroke-width="1" x1="742" x2="737" y1="606" y2="608"/>
<line fill="#000000" stroke="#000000" stroke-width="1" x1="732" x2="728" y1="610" y2="612"/>
<line fill="#000000" stroke="#000000" stroke-width="1" x1="723" x2="719" y1="614" y2="616"/>
<line fill="#000000" stroke="#000000" stroke-width="1" x1="714" x2="709" y1="618" y2="620"/>
<line fill="#000000" stroke="#000000" stroke-width="1" x1="705" x2="700" y1="622" y2="623"/>
<line fill="#000000" stroke="#000000" stroke-width="1" x1="695" x2="692" y1="625" y2="627"/>
<line fill="#000000" stroke="#000000" stroke-width="1" x1="700" x2="692" y1="615" y2="627"/>
<line fill="#000000" stroke="#000000" stroke-width="1" x1="705" x2="692" y1="628" y2="627"/>
<text font-family="Dialog" font-size="12" x="749" y="555">
&lt;&lt;extend&gt;&gt;</text>
<line fill="#000000" stroke="#000000" stroke-width="1" x1="843" x2="839" y1="688" y2="687"/>
<line fill="#000000" stroke="#000000" stroke-width="1" x1="834" x2="829" y1="686" y2="685"/>
<line fill="#000000" stroke="#000000" stroke-width="1" x1="824" x2="819" y1="684" y2="683"/>
<line fill="#000000" stroke="#000000" stroke-width="1" x1="814" x2="809" y1="682" y2="680"/>
<line fill="#000000" stroke="#000000" stroke-width="1" x1="805" x2="800" y1="679" y2="678"/>
<line fill="#000000" stroke="#000000" stroke-width="1" x1="795" x2="790" y1="677" y2="676"/>
<line fill="#000000" stroke="#000000" stroke-width="1" x1="785" x2="780" y1="675" y2="673"/>
<line fill="#000000" stroke="#000000" stroke-width="1" x1="775" x2="771" y1="672" y2="671"/>
<line fill="#000000" stroke="#000000" stroke-width="1" x1="766" x2="761" y1="670" y2="669"/>
<line fill="#000000" stroke="#000000" stroke-width="1" x1="756" x2="751" y1="668" y2="666"/>
<line fill="#000000" stroke="#000000" stroke-width="1" x1="746" x2="741" y1="665" y2="664"/>
<line fill="#000000" stroke="#000000" stroke-width="1" x1="737" x2="732" y1="663" y2="662"/>
<line fill="#000000" stroke="#000000" stroke-width="1" x1="727" x2="722" y1="661" y2="659"/>
<line fill="#000000" stroke="#000000" stroke-width="1" x1="717" x2="712" y1="658" y2="657"/>
<line fill="#000000" stroke="#000000" stroke-width="1" x1="707" x2="702" y1="656" y2="655"/>
<line fill="#000000" stroke="#000000" stroke-width="1" x1="714" x2="701" y1="649" y2="654"/>
<line fill="#000000" stroke="#000000" stroke-width="1" x1="711" x2="701" y1="663" y2="654"/>
<text font-family="Dialog" font-size="12" x="800" y="655">
&lt;&lt;extend&gt;&gt;</text>
<line fill="#000000" stroke="#000000" stroke-width="1" x1="732" x2="729" y1="727" y2="724"/>
<line fill="#000000" stroke="#000000" stroke-width="1" x1="726" x2="722" y1="720" y2="716"/>
<line fill="#000000" stroke="#000000" stroke-width="1" x1="719" x2="716" y1="713" y2="709"/>
<line fill="#000000" stroke="#000000" stroke-width="1" x1="712" x2="709" y1="705" y2="701"/>
<line fill="#000000" stroke="#000000" stroke-width="1" x1="705" x2="702" y1="698" y2="694"/>
<line fill="#000000" stroke="#000000" stroke-width="1" x1="699" x2="695" y1="690" y2="686"/>
<line fill="#000000" stroke="#000000" stroke-width="1" x1="692" x2="688" y1="683" y2="679"/>
<line fill="#000000" stroke="#000000" stroke-width="1" x1="685" x2="682" y1="675" y2="671"/>
<line fill="#000000" stroke="#000000" stroke-width="1" x1="678" x2="675" y1="668" y2="664"/>
<line fill="#000000" stroke="#000000" stroke-width="1" x1="686" x2="673" y1="666" y2="662"/>
<line fill="#000000" stroke="#000000" stroke-width="1" x1="675" x2="673" y1="675" y2="662"/>
<text font-family="Dialog" font-size="12" x="735" y="705">
&lt;&lt;extend&gt;&gt;</text>
<line fill="#000000" stroke="#000000" stroke-width="1" x1="623" x2="624" y1="718" y2="714"/>
<line fill="#000000" stroke="#000000" stroke-width="1" x1="626" x2="628" y1="709" y2="705"/>
<line fill="#000000" stroke="#000000" stroke-width="1" x1="630" x2="632" y1="700" y2="695"/>
<line fill="#000000" stroke="#000000" stroke-width="1" x1="634" x2="636" y1="691" y2="686"/>
<line fill="#000000" stroke="#000000" stroke-width="1" x1="638" x2="640" y1="681" y2="677"/>
<line fill="#000000" stroke="#000000" stroke-width="1" x1="642" x2="644" y1="672" y2="667"/>
<line fill="#000000" stroke="#000000" stroke-width="1" x1="647" x2="646" y1="676" y2="663"/>
<line fill="#000000" stroke="#000000" stroke-width="1" x1="634" x2="646" y1="671" y2="663"/>
<text font-family="Dialog" font-size="12" x="568" y="672">
&lt;&lt;extend&gt;&gt;</text>
<line fill="#000000" stroke="#000000" stroke-width="1" x1="496" x2="500" y1="722" y2="720"/>
<line fill="#000000" stroke="#000000" stroke-width="1" x1="504" x2="509" y1="718" y2="716"/>
<line fill="#000000" stroke="#000000" stroke-width="1" x1="513" x2="518" y1="713" y2="711"/>
<line fill="#000000" stroke="#000000" stroke-width="1" x1="522" x2="527" y1="709" y2="707"/>
<line fill="#000000" stroke="#000000" stroke-width="1" x1="531" x2="536" y1="704" y2="702"/>
<line fill="#000000" stroke="#000000" stroke-width="1" x1="540" x2="545" y1="700" y2="698"/>
<line fill="#000000" stroke="#000000" stroke-width="1" x1="549" x2="554" y1="695" y2="693"/>
<line fill="#000000" stroke="#000000" stroke-width="1" x1="558" x2="563" y1="691" y2="689"/>
<line fill="#000000" stroke="#000000" stroke-width="1" x1="567" x2="572" y1="686" y2="684"/>
<line fill="#000000" stroke="#000000" stroke-width="1" x1="576" x2="581" y1="682" y2="679"/>
<line fill="#000000" stroke="#000000" stroke-width="1" x1="585" x2="590" y1="677" y2="675"/>
<line fill="#000000" stroke="#000000" stroke-width="1" x1="594" x2="599" y1="673" y2="670"/>
<line fill="#000000" stroke="#000000" stroke-width="1" x1="603" x2="608" y1="668" y2="666"/>
<line fill="#000000" stroke="#000000" stroke-width="1" x1="612" x2="617" y1="664" y2="661"/>
<line fill="#000000" stroke="#000000" stroke-width="1" x1="613" x2="621" y1="670" y2="659"/>
<line fill="#000000" stroke="#000000" stroke-width="1" x1="607" x2="621" y1="658" y2="659"/>
<text font-family="Dialog" font-size="12" x="512" y="659">
&lt;&lt;extend&gt;&gt;</text>
<line fill="#000000" stroke="#000000" stroke-width="1" x1="920" x2="915" y1="639" y2="639"/>
<line fill="#000000" stroke="#000000" stroke-width="1" x1="910" x2="905" y1="639" y2="639"/>
<line fill="#000000" stroke="#000000" stroke-width="1" x1="900" x2="895" y1="639" y2="639"/>
<line fill="#000000" stroke="#000000" stroke-width="1" x1="890" x2="885" y1="639" y2="639"/>
<line fill="#000000" stroke="#000000" stroke-width="1" x1="880" x2="875" y1="639" y2="639"/>
<line fill="#000000" stroke="#000000" stroke-width="1" x1="870" x2="865" y1="639" y2="639"/>
<line fill="#000000" stroke="#000000" stroke-width="1" x1="860" x2="855" y1="639" y2="639"/>
<line fill="#000000" stroke="#000000" stroke-width="1" x1="850" x2="845" y1="639" y2="639"/>
<line fill="#000000" stroke="#000000" stroke-width="1" x1="840" x2="835" y1="639" y2="639"/>
<line fill="#000000" stroke="#000000" stroke-width="1" x1="830" x2="825" y1="639" y2="639"/>
<line fill="#000000" stroke="#000000" stroke-width="1" x1="820" x2="815" y1="639" y2="639"/>
<line fill="#000000" stroke="#000000" stroke-width="1" x1="810" x2="805" y1="639" y2="639"/>
<line fill="#000000" stroke="#000000" stroke-width="1" x1="800" x2="795" y1="639" y2="639"/>
<line fill="#000000" stroke="#000000" stroke-width="1" x1="790" x2="785" y1="639" y2="639"/>
<line fill="#000000" stroke="#000000" stroke-width="1" x1="780" x2="775" y1="639" y2="639"/>
<line fill="#000000" stroke="#000000" stroke-width="1" x1="770" x2="765" y1="639" y2="639"/>
<line fill="#000000" stroke="#000000" stroke-width="1" x1="760" x2="755" y1="639" y2="639"/>
<line fill="#000000" stroke="#000000" stroke-width="1" x1="750" x2="745" y1="639" y2="639"/>
<line fill="#000000" stroke="#000000" stroke-width="1" x1="740" x2="735" y1="639" y2="639"/>
<line fill="#000000" stroke="#000000" stroke-width="1" x1="730" x2="725" y1="639" y2="639"/>
<line fill="#000000" stroke="#000000" stroke-width="1" x1="720" x2="715" y1="639" y2="639"/>
<line fill="#000000" stroke="#000000" stroke-width="1" x1="710" x2="709" y1="639" y2="639"/>
<line fill="#000000" stroke="#000000" stroke-width="1" x1="721" x2="709" y1="632" y2="639"/>
<line fill="#000000" stroke="#000000" stroke-width="1" x1="721" x2="709" y1="646" y2="639"/>
<text font-family="Dialog" font-size="12" x="783" y="615">
&lt;&lt;extend&gt;&gt;</text>
<line fill="#000000" stroke="#000000" stroke-width="1" x1="335" x2="336" y1="382" y2="378"/>
<line fill="#000000" stroke="#000000" stroke-width="1" x1="338" x2="340" y1="373" y2="369"/>
<line fill="#000000" stroke="#000000" stroke-width="1" x1="342" x2="344" y1="364" y2="359"/>
<line fill="#000000" stroke="#000000" stroke-width="1" x1="346" x2="348" y1="355" y2="350"/>
<line fill="#000000" stroke="#000000" stroke-width="1" x1="350" x2="352" y1="345" y2="341"/>
<line fill="#000000" stroke="#000000" stroke-width="1" x1="354" x2="356" y1="336" y2="331"/>
<line fill="#000000" stroke="#000000" stroke-width="1" x1="358" x2="357" y1="342" y2="329"/>
<line fill="#000000" stroke="#000000" stroke-width="1" x1="345" x2="357" y1="337" y2="329"/>
<text font-family="Dialog" font-size="12" x="278" y="348">
&lt;&lt;include&gt;&gt;</text>
<polyline fill="none" points="53,146 122,78" stroke="#000000" stroke-width="1"/>
<line fill="#000000" stroke="#000000" stroke-width="1" x1="118" x2="122" y1="91" y2="78"/>
<line fill="#000000" stroke="#000000" stroke-width="1" x1="108" x2="122" y1="81" y2="78"/>
<polyline fill="none" points="56,164 528,147" stroke="#333399" stroke-width="1"/>
<polyline fill="none" points="789,51 55,151" stroke="#333399" stroke-width="1"/>
<polyline fill="none" points="435,212 56,164" stroke="#333399" stroke-width="1"/>
<polyline fill="none" points="549,278 51,213" stroke="#333399" stroke-width="1"/>
<polyline fill="none" points="308,286 51,213" stroke="#333399" stroke-width="1"/>
<polyline fill="none" points="300,384 51,213" stroke="#333399" stroke-width="1"/>
<polyline fill="none" points="79,599 377,568" stroke="#000000" stroke-width="1"/>
<polyline fill="none" points="80,612 600,640" stroke="#000000" stroke-width="1"/>
</svg>
